<svg xmlns="http://www.w3.org/2000/svg" xmlns:xlink="http://www.w3.org/1999/xlink" width="295" zoomAndPan="magnify" viewBox="0 0 221.25 56.249996" height="75" preserveAspectRatio="xMidYMid meet" version="1.0"><defs><g/></defs><path fill="#2e3131" d="M 104.492188 9.460938 L 104.492188 2.273438 C 104.492188 1.796875 104.101562 1.402344 103.621094 1.402344 C 103.140625 1.402344 102.75 1.796875 102.75 2.273438 L 102.75 9.460938 C 102.75 9.9375 103.140625 10.328125 103.621094 10.328125 C 104.101562 10.328125 104.492188 9.9375 104.492188 9.460938 Z M 104.492188 9.460938 " fill-opacity="1" fill-rule="nonzero"/><path fill="#2e3131" d="M 98.394531 15.425781 C 98.394531 14.945312 98.003906 14.554688 97.523438 14.554688 L 90.339844 14.554688 C 89.859375 14.554688 89.46875 14.945312 89.46875 15.425781 C 89.46875 15.902344 89.859375 16.296875 90.339844 16.296875 L 97.523438 16.296875 C 98.003906 16.296875 98.394531 15.945312 98.394531 15.425781 Z M 98.394531 15.425781 " fill-opacity="1" fill-rule="nonzero"/><path fill="#2e3131" d="M 96.4375 7.019531 C 96.085938 6.671875 95.566406 6.671875 95.214844 7.019531 C 94.867188 7.367188 94.867188 7.890625 95.214844 8.238281 L 97.523438 10.546875 C 97.699219 10.722656 97.917969 10.808594 98.132812 10.808594 C 98.351562 10.808594 98.570312 10.722656 98.742188 10.546875 C 99.09375 10.199219 99.09375 9.675781 98.742188 9.328125 Z M 96.4375 7.019531 " fill-opacity="1" fill-rule="nonzero"/><path fill="#2e3131" d="M 109.542969 10.636719 L 111.851562 8.328125 C 112.199219 7.980469 112.199219 7.457031 111.851562 7.109375 C 111.503906 6.757812 110.980469 6.757812 110.632812 7.109375 L 108.324219 9.414062 C 107.976562 9.765625 107.976562 10.285156 108.324219 10.636719 C 108.496094 10.808594 108.714844 10.894531 108.933594 10.894531 C 109.152344 10.894531 109.367188 10.808594 109.542969 10.636719 Z M 109.542969 10.636719 " fill-opacity="1" fill-rule="nonzero"/><path fill="#2e3131" d="M 97.4375 20.300781 L 95.128906 22.609375 C 94.78125 22.957031 94.78125 23.480469 95.128906 23.828125 C 95.304688 24.003906 95.519531 24.089844 95.738281 24.089844 C 95.957031 24.089844 96.175781 24.003906 96.347656 23.828125 L 98.65625 21.519531 C 99.003906 21.171875 99.003906 20.648438 98.65625 20.300781 C 98.308594 19.953125 97.785156 19.953125 97.4375 20.300781 Z M 97.4375 20.300781 " fill-opacity="1" fill-rule="nonzero"/><path fill="#2e3131" d="M 122.34375 20.171875 L 104.144531 15.03125 C 103.839844 14.945312 103.535156 15.03125 103.273438 15.25 C 103.054688 15.46875 102.96875 15.816406 103.054688 16.078125 L 108.0625 34.410156 C 108.148438 34.757812 108.496094 35.019531 108.847656 35.0625 C 108.847656 35.0625 108.890625 35.0625 108.890625 35.0625 C 109.238281 35.0625 109.585938 34.84375 109.71875 34.496094 L 113.289062 25.265625 L 122.433594 21.824219 C 122.78125 21.695312 123 21.347656 123 20.953125 C 123 20.5625 122.738281 20.257812 122.34375 20.171875 Z M 122.34375 20.171875 " fill-opacity="1" fill-rule="nonzero"/><g fill="#2e3131" fill-opacity="1"><g transform="translate(20.246742, 50.324259)"><g><path d="M 0.234375 -2.300781 C 0.234375 -0.910156 1.25 0.0820312 2.640625 0.0820312 C 4.035156 0.0820312 5.050781 -0.910156 5.050781 -2.300781 C 5.050781 -3.6875 4.035156 -4.683594 2.640625 -4.683594 C 1.25 -4.683594 0.234375 -3.6875 0.234375 -2.300781 Z M 4.042969 -2.300781 C 4.042969 -1.445312 3.488281 -0.789062 2.640625 -0.789062 C 1.789062 -0.789062 1.242188 -1.445312 1.242188 -2.300781 C 1.242188 -3.164062 1.789062 -3.8125 2.640625 -3.8125 C 3.488281 -3.8125 4.042969 -3.164062 4.042969 -2.300781 Z M 4.042969 -2.300781 "/></g></g></g><g fill="#2e3131" fill-opacity="1"><g transform="translate(28.073449, 50.324259)"><g><path d="M 4.578125 0 L 4.578125 -4.609375 L 3.597656 -4.609375 L 3.597656 -1.625 L 1.464844 -4.609375 L 0.457031 -4.609375 L 0.457031 0 L 1.4375 0 L 1.4375 -3.09375 L 3.632812 0 Z M 4.578125 0 "/></g></g></g><g fill="#2e3131" fill-opacity="1"><g transform="translate(35.651466, 50.324259)"><g><path d="M 2.652344 0.0820312 C 3.703125 0.0820312 4.28125 -0.476562 4.613281 -1.050781 L 3.773438 -1.457031 C 3.578125 -1.078125 3.164062 -0.789062 2.652344 -0.789062 C 1.851562 -0.789062 1.242188 -1.429688 1.242188 -2.300781 C 1.242188 -3.171875 1.851562 -3.8125 2.652344 -3.8125 C 3.164062 -3.8125 3.578125 -3.515625 3.773438 -3.144531 L 4.613281 -3.558594 C 4.289062 -4.132812 3.703125 -4.683594 2.652344 -4.683594 C 1.304688 -4.683594 0.234375 -3.714844 0.234375 -2.300781 C 0.234375 -0.882812 1.304688 0.0820312 2.652344 0.0820312 Z M 2.652344 0.0820312 "/></g></g></g><g fill="#2e3131" fill-opacity="1"><g transform="translate(42.939353, 50.324259)"><g><path d="M 3.386719 0 L 3.386719 -0.863281 L 1.4375 -0.863281 L 1.4375 -4.609375 L 0.457031 -4.609375 L 0.457031 0 Z M 3.386719 0 "/></g></g></g><g fill="#2e3131" fill-opacity="1"><g transform="translate(49.094329, 50.324259)"><g><path d="M 1.4375 0 L 1.4375 -4.609375 L 0.457031 -4.609375 L 0.457031 0 Z M 1.4375 0 "/></g></g></g><g fill="#2e3131" fill-opacity="1"><g transform="translate(53.529221, 50.324259)"><g><path d="M 2.652344 0.0820312 C 3.703125 0.0820312 4.28125 -0.476562 4.613281 -1.050781 L 3.773438 -1.457031 C 3.578125 -1.078125 3.164062 -0.789062 2.652344 -0.789062 C 1.851562 -0.789062 1.242188 -1.429688 1.242188 -2.300781 C 1.242188 -3.171875 1.851562 -3.8125 2.652344 -3.8125 C 3.164062 -3.8125 3.578125 -3.515625 3.773438 -3.144531 L 4.613281 -3.558594 C 4.289062 -4.132812 3.703125 -4.683594 2.652344 -4.683594 C 1.304688 -4.683594 0.234375 -3.714844 0.234375 -2.300781 C 0.234375 -0.882812 1.304688 0.0820312 2.652344 0.0820312 Z M 2.652344 0.0820312 "/></g></g></g><g fill="#2e3131" fill-opacity="1"><g transform="translate(60.817107, 50.324259)"><g><path d="M 4.398438 0 L 2.445312 -2.445312 L 4.277344 -4.609375 L 3.066406 -4.609375 L 1.4375 -2.550781 L 1.4375 -4.609375 L 0.457031 -4.609375 L 0.457031 0 L 1.4375 0 L 1.4375 -1.417969 L 1.796875 -1.84375 L 3.191406 0 Z M 4.398438 0 "/></g></g></g><g fill="#2e3131" fill-opacity="1"><g transform="translate(67.752681, 50.324259)"><g><path d="M 2.273438 0 C 3.714844 0 4.71875 -0.910156 4.71875 -2.300781 C 4.71875 -3.6875 3.714844 -4.609375 2.273438 -4.609375 L 0.457031 -4.609375 L 0.457031 0 Z M 1.4375 -3.742188 L 2.273438 -3.742188 C 3.21875 -3.742188 3.714844 -3.117188 3.714844 -2.300781 C 3.714844 -1.519531 3.183594 -0.863281 2.273438 -0.863281 L 1.4375 -0.863281 Z M 1.4375 -3.742188 "/></g></g></g><g fill="#2e3131" fill-opacity="1"><g transform="translate(75.254709, 50.324259)"><g/></g></g><g fill="#2e3131" fill-opacity="1"><g transform="translate(79.565256, 50.324259)"><g><path d="M 2.652344 0.0820312 C 3.703125 0.0820312 4.28125 -0.476562 4.613281 -1.050781 L 3.773438 -1.457031 C 3.578125 -1.078125 3.164062 -0.789062 2.652344 -0.789062 C 1.851562 -0.789062 1.242188 -1.429688 1.242188 -2.300781 C 1.242188 -3.171875 1.851562 -3.8125 2.652344 -3.8125 C 3.164062 -3.8125 3.578125 -3.515625 3.773438 -3.144531 L 4.613281 -3.558594 C 4.289062 -4.132812 3.703125 -4.683594 2.652344 -4.683594 C 1.304688 -4.683594 0.234375 -3.714844 0.234375 -2.300781 C 0.234375 -0.882812 1.304688 0.0820312 2.652344 0.0820312 Z M 2.652344 0.0820312 "/></g></g></g><g fill="#2e3131" fill-opacity="1"><g transform="translate(86.853142, 50.324259)"><g><path d="M 4.753906 0 L 2.976562 -4.609375 L 1.746094 -4.609375 L -0.0351562 0 L 1.042969 0 L 1.332031 -0.792969 L 3.390625 -0.792969 L 3.683594 0 Z M 3.121094 -1.644531 L 1.597656 -1.644531 L 2.363281 -3.757812 Z M 3.121094 -1.644531 "/></g></g></g><g fill="#2e3131" fill-opacity="1"><g transform="translate(94.120299, 50.324259)"><g><path d="M 4.1875 0 L 3.148438 -1.753906 C 3.648438 -1.871094 4.160156 -2.308594 4.160156 -3.121094 C 4.160156 -3.980469 3.570312 -4.609375 2.609375 -4.609375 L 0.457031 -4.609375 L 0.457031 0 L 1.4375 0 L 1.4375 -1.652344 L 2.15625 -1.652344 L 3.058594 0 Z M 3.15625 -3.128906 C 3.15625 -2.742188 2.859375 -2.492188 2.464844 -2.492188 L 1.4375 -2.492188 L 1.4375 -3.765625 L 2.464844 -3.765625 C 2.859375 -3.765625 3.15625 -3.515625 3.15625 -3.128906 Z M 3.15625 -3.128906 "/></g></g></g><g fill="#2e3131" fill-opacity="1"><g transform="translate(101.104227, 50.324259)"><g><path d="M 1.4375 0 L 1.4375 -4.609375 L 0.457031 -4.609375 L 0.457031 0 Z M 1.4375 0 "/></g></g></g><g fill="#2e3131" fill-opacity="1"><g transform="translate(105.539119, 50.324259)"><g><path d="M 2.957031 0 C 3.832031 0 4.296875 -0.550781 4.296875 -1.242188 C 4.296875 -1.824219 3.902344 -2.300781 3.414062 -2.375 C 3.847656 -2.464844 4.207031 -2.851562 4.207031 -3.433594 C 4.207031 -4.046875 3.757812 -4.609375 2.878906 -4.609375 L 0.457031 -4.609375 L 0.457031 0 Z M 1.4375 -3.773438 L 2.667969 -3.773438 C 2.996094 -3.773438 3.207031 -3.550781 3.207031 -3.265625 C 3.207031 -2.96875 2.996094 -2.757812 2.667969 -2.757812 L 1.4375 -2.757812 Z M 1.4375 -1.921875 L 2.699219 -1.921875 C 3.085938 -1.921875 3.296875 -1.671875 3.296875 -1.382812 C 3.296875 -1.050781 3.074219 -0.835938 2.699219 -0.835938 L 1.4375 -0.835938 Z M 1.4375 -1.921875 "/></g></g></g><g fill="#2e3131" fill-opacity="1"><g transform="translate(112.66121, 50.324259)"><g><path d="M 2.957031 0 C 3.832031 0 4.296875 -0.550781 4.296875 -1.242188 C 4.296875 -1.824219 3.902344 -2.300781 3.414062 -2.375 C 3.847656 -2.464844 4.207031 -2.851562 4.207031 -3.433594 C 4.207031 -4.046875 3.757812 -4.609375 2.878906 -4.609375 L 0.457031 -4.609375 L 0.457031 0 Z M 1.4375 -3.773438 L 2.667969 -3.773438 C 2.996094 -3.773438 3.207031 -3.550781 3.207031 -3.265625 C 3.207031 -2.96875 2.996094 -2.757812 2.667969 -2.757812 L 1.4375 -2.757812 Z M 1.4375 -1.921875 L 2.699219 -1.921875 C 3.085938 -1.921875 3.296875 -1.671875 3.296875 -1.382812 C 3.296875 -1.050781 3.074219 -0.835938 2.699219 -0.835938 L 1.4375 -0.835938 Z M 1.4375 -1.921875 "/></g></g></g><g fill="#2e3131" fill-opacity="1"><g transform="translate(119.7833, 50.324259)"><g><path d="M 3.714844 0 L 3.714844 -0.851562 L 1.4375 -0.851562 L 1.4375 -1.921875 L 3.667969 -1.921875 L 3.667969 -2.761719 L 1.4375 -2.761719 L 1.4375 -3.765625 L 3.714844 -3.765625 L 3.714844 -4.609375 L 0.457031 -4.609375 L 0.457031 0 Z M 3.714844 0 "/></g></g></g><g fill="#2e3131" fill-opacity="1"><g transform="translate(126.352753, 50.324259)"><g><path d="M 4.753906 0 L 2.976562 -4.609375 L 1.746094 -4.609375 L -0.0351562 0 L 1.042969 0 L 1.332031 -0.792969 L 3.390625 -0.792969 L 3.683594 0 Z M 3.121094 -1.644531 L 1.597656 -1.644531 L 2.363281 -3.757812 Z M 3.121094 -1.644531 "/></g></g></g><g fill="#2e3131" fill-opacity="1"><g transform="translate(133.619909, 50.324259)"><g><path d="M 4.578125 0 L 4.578125 -4.609375 L 3.597656 -4.609375 L 3.597656 -1.625 L 1.464844 -4.609375 L 0.457031 -4.609375 L 0.457031 0 L 1.4375 0 L 1.4375 -3.09375 L 3.632812 0 Z M 4.578125 0 "/></g></g></g><g fill="#2e3131" fill-opacity="1"><g transform="translate(141.197927, 50.324259)"><g/></g></g><g fill="#2e3131" fill-opacity="1"><g transform="translate(145.508474, 50.324259)"><g><path d="M 0.136719 -0.648438 C 0.574219 -0.214844 1.207031 0.0820312 2.09375 0.0820312 C 3.335938 0.0820312 3.9375 -0.550781 3.9375 -1.394531 C 3.9375 -2.417969 2.96875 -2.644531 2.210938 -2.820312 C 1.679688 -2.941406 1.292969 -3.039062 1.292969 -3.351562 C 1.292969 -3.625 1.527344 -3.820312 1.96875 -3.820312 C 2.417969 -3.820312 2.914062 -3.660156 3.289062 -3.316406 L 3.832031 -4.035156 C 3.378906 -4.457031 2.769531 -4.675781 2.039062 -4.675781 C 0.953125 -4.675781 0.289062 -4.054688 0.289062 -3.289062 C 0.289062 -2.257812 1.257812 -2.050781 2.011719 -1.878906 C 2.542969 -1.753906 2.941406 -1.636719 2.941406 -1.292969 C 2.941406 -1.027344 2.679688 -0.773438 2.140625 -0.773438 C 1.507812 -0.773438 1 -1.058594 0.675781 -1.394531 Z M 0.136719 -0.648438 "/></g></g></g><g fill="#2e3131" fill-opacity="1"><g transform="translate(152.195367, 50.324259)"><g><path d="M 0.234375 -2.300781 C 0.234375 -0.910156 1.25 0.0820312 2.640625 0.0820312 C 4.035156 0.0820312 5.050781 -0.910156 5.050781 -2.300781 C 5.050781 -3.6875 4.035156 -4.683594 2.640625 -4.683594 C 1.25 -4.683594 0.234375 -3.6875 0.234375 -2.300781 Z M 4.042969 -2.300781 C 4.042969 -1.445312 3.488281 -0.789062 2.640625 -0.789062 C 1.789062 -0.789062 1.242188 -1.445312 1.242188 -2.300781 C 1.242188 -3.164062 1.789062 -3.8125 2.640625 -3.8125 C 3.488281 -3.8125 4.042969 -3.164062 4.042969 -2.300781 Z M 4.042969 -2.300781 "/></g></g></g><g fill="#2e3131" fill-opacity="1"><g transform="translate(160.022074, 50.324259)"><g><path d="M 1.4375 0 L 1.4375 -1.921875 L 3.667969 -1.921875 L 3.667969 -2.761719 L 1.4375 -2.761719 L 1.4375 -3.765625 L 3.714844 -3.765625 L 3.714844 -4.609375 L 0.457031 -4.609375 L 0.457031 0 Z M 1.4375 0 "/></g></g></g><g fill="#2e3131" fill-opacity="1"><g transform="translate(166.508633, 50.324259)"><g><path d="M 2.507812 0 L 2.507812 -3.742188 L 3.847656 -3.742188 L 3.847656 -4.609375 L 0.171875 -4.609375 L 0.171875 -3.742188 L 1.519531 -3.742188 L 1.519531 0 Z M 2.507812 0 "/></g></g></g><g fill="#2e3131" fill-opacity="1"><g transform="translate(173.071182, 50.324259)"><g><path d="M 5.023438 0 L 6.335938 -4.609375 L 5.230469 -4.609375 L 4.429688 -1.277344 L 3.558594 -4.609375 L 2.789062 -4.609375 L 1.914062 -1.277344 L 1.105469 -4.609375 L 0.0078125 -4.609375 L 1.328125 0 L 2.371094 0 L 3.171875 -3.164062 L 3.980469 0 Z M 5.023438 0 "/></g></g></g><g fill="#2e3131" fill-opacity="1"><g transform="translate(181.954809, 50.324259)"><g><path d="M 4.753906 0 L 2.976562 -4.609375 L 1.746094 -4.609375 L -0.0351562 0 L 1.042969 0 L 1.332031 -0.792969 L 3.390625 -0.792969 L 3.683594 0 Z M 3.121094 -1.644531 L 1.597656 -1.644531 L 2.363281 -3.757812 Z M 3.121094 -1.644531 "/></g></g></g><g fill="#2e3131" fill-opacity="1"><g transform="translate(189.221974, 50.324259)"><g><path d="M 4.1875 0 L 3.148438 -1.753906 C 3.648438 -1.871094 4.160156 -2.308594 4.160156 -3.121094 C 4.160156 -3.980469 3.570312 -4.609375 2.609375 -4.609375 L 0.457031 -4.609375 L 0.457031 0 L 1.4375 0 L 1.4375 -1.652344 L 2.15625 -1.652344 L 3.058594 0 Z M 3.15625 -3.128906 C 3.15625 -2.742188 2.859375 -2.492188 2.464844 -2.492188 L 1.4375 -2.492188 L 1.4375 -3.765625 L 2.464844 -3.765625 C 2.859375 -3.765625 3.15625 -3.515625 3.15625 -3.128906 Z M 3.15625 -3.128906 "/></g></g></g><g fill="#2e3131" fill-opacity="1"><g transform="translate(196.205894, 50.324259)"><g><path d="M 3.714844 0 L 3.714844 -0.851562 L 1.4375 -0.851562 L 1.4375 -1.921875 L 3.667969 -1.921875 L 3.667969 -2.761719 L 1.4375 -2.761719 L 1.4375 -3.765625 L 3.714844 -3.765625 L 3.714844 -4.609375 L 0.457031 -4.609375 L 0.457031 0 Z M 3.714844 0 "/></g></g></g></svg>