<?xml version="1.0" encoding="UTF-8" standalone="no"?><svg xmlns="http://www.w3.org/2000/svg" xmlns:xlink="http://www.w3.org/1999/xlink" height="125px" version="1.1" viewBox="0 0 182 125" width="182px">
    <!-- Generator: Sketch 63.1 (92452) - https://sketch.com -->
    <title>Artboard</title>
    <desc>Created with Sketch.</desc>
    <g fill="none" fill-rule="evenodd" id="Artboard" stroke="none" stroke-width="1">
        <g fill-rule="nonzero" id="CvdRvdM-Logo-Desktop">
            <rect fill="#FFFFFF" height="125" id="Rectangle" width="182" x="0" y="0"/>
            <polygon fill="#D83B18" id="Path" points="182 125 0 125 0 0 182 0 182 62.026001 20.2222225 62.026001 20.2222225 64 182 64"/>
            <path d="M19.976388,44.9385992 C19.976388,40.2743747 22.711872,37.2698267 26.7707025,37.2698267 C29.8200946,37.2698267 31.7486109,38.7945227 32.5560271,41.7766487 L30.7620428,42.135625 C30.0893828,39.7586687 28.8335266,38.7721007 26.7480563,38.7721007 C23.7657061,38.7721007 21.814992,41.1039887 21.814992,44.8937552 L21.814992,44.9610212 C21.814992,48.6158073 23.541486,51.0824516 26.6359463,51.0824516 C29.0353246,51.0824516 30.3136028,49.7821998 30.8517308,47.4947073 L32.6230689,47.8310373 C31.9504089,50.8808778 29.8651628,52.5625278 26.6359463,52.5625278 C22.420386,52.5625278 19.976388,49.4680675 19.976388,44.9385992" fill="#FFFFFF" id="Fill-2"/>
            <path d="M43.3854721,46.710027 C43.3854721,44.0640067 42.2417259,42.3148664 40.0219478,42.3148664 C37.7571016,42.3148664 36.4788233,44.1088507 36.4788233,46.710027 C36.4788233,49.400667 37.7346796,51.1273853 39.9322598,51.1273853 C42.1071939,51.1273853 43.3854721,49.400667 43.3854721,46.710027 M34.6402193,46.732449 C34.6402193,43.4586127 36.6357773,40.9473486 40.0443698,40.9473486 C43.3854721,40.9473486 45.2240762,43.2117465 45.2240762,46.687605 C45.2240762,50.1183952 43.1610279,52.5175493 39.9322598,52.5175493 C36.5236673,52.5175493 34.6402193,50.2977712 34.6402193,46.732449" fill="#FFFFFF" id="Fill-4"/>
            <polygon fill="#FFFFFF" id="Fill-6" points="48.0931729 52.2934862 49.8420889 52.2934862 49.8420889 35.9243048 48.0931729 35.9243048"/>
            <polygon fill="#FFFFFF" id="Fill-8" points="53.9002468 52.2934862 55.6491628 52.2934862 55.6491628 35.9243048 53.9002468 35.9243048"/>
            <path d="M66.8153639,45.9027004 L66.8153639,45.7457464 C66.8153639,43.6156564 65.9633279,42.2925341 63.8778576,42.2925341 C62.1737856,42.2925341 60.7836215,43.3239461 60.6264433,45.9027004 L66.8153639,45.9027004 Z M58.8326833,46.7323144 C58.8326833,43.0773041 60.8733095,40.9472141 63.9451236,40.9472141 C67.2638039,40.9472141 68.6317701,43.2118361 68.6093481,46.2390304 C68.6093481,46.3737866 68.6093481,47.0240247 68.5867019,47.0912907 L60.6042455,47.0912907 C60.7163555,49.8267747 62.0392536,51.127475 64.0798798,51.127475 C65.5148878,51.127475 66.5016801,50.4770127 67.0395839,49.6252009 L68.2281741,50.4548149 C67.4207579,51.620759 66.0754379,52.517639 63.9899676,52.517639 C60.6937093,52.517639 58.8102613,50.3427049 58.8326833,46.7323144 L58.8326833,46.7323144 Z" fill="#FFFFFF" id="Fill-9"/>
            <path d="M78.6539334,44.9385992 C78.6539334,43.3914812 77.7570534,42.180469 75.8285372,42.180469 C73.8775989,42.180469 73.0255629,43.480945 73.0255629,44.9610212 C73.0255629,46.5305613 73.9002451,47.7189273 75.8285372,47.7189273 C77.7344072,47.7189273 78.6539334,46.5305613 78.6539334,44.9385992 L78.6539334,44.9385992 Z M75.8736054,56.3518459 C78.6090894,56.3518459 79.6629235,55.3428559 79.6629235,54.2441779 C79.6629235,53.2351878 78.5418234,53.0782338 76.9947054,52.9212798 C76.2993992,52.8315918 75.0886112,52.7194818 74.2587729,52.6746378 C72.9585211,52.9212798 72.2632149,53.6163618 72.2856369,54.4459759 C72.2856369,55.6345661 73.4740029,56.3518459 75.6267392,56.3518459 L75.8736054,56.3518459 Z M70.6710286,54.8722181 C70.6710286,53.6612058 71.7250869,52.7419038 73.4518051,52.4279958 C72.1959489,52.1813538 71.5008669,51.4187816 71.5008669,50.4770576 C71.5008669,49.5801775 72.1959489,48.8626735 73.5412689,48.5263435 C72.1062609,47.8761055 71.2990689,46.5529833 71.2990689,45.0058652 C71.2990689,42.741019 72.9358749,40.9696809 75.8509592,40.9696809 C77.5328334,40.9696809 78.8108874,41.597497 79.5508135,42.561643 C79.8647215,41.5524287 80.6945597,41.059369 81.6811277,41.059369 C81.8380817,41.059369 81.9948115,41.081791 82.0847237,41.126635 L82.0847237,42.8309312 C81.9948115,42.785863 81.8156597,42.741019 81.5690177,42.741019 C81.0530875,42.741019 80.4030737,42.853129 79.9992535,43.323991 C80.2234735,43.8174992 80.3355835,44.355403 80.3355835,44.915953 C80.3355835,47.3155555 78.5866674,48.9521373 75.7388492,48.9521373 C75.2904092,48.9521373 74.8643912,48.9075175 74.4829929,48.8178295 C73.4964249,48.9747835 72.9807189,49.4680675 72.9807189,49.9389296 C72.9807189,50.5219016 73.2722049,51.0154098 74.8643912,51.1945616 C75.4473632,51.2618276 76.8375272,51.3965838 77.5101872,51.4414278 C79.8647215,51.7102676 81.2773075,52.2708176 81.2773075,54.1096459 C81.2773075,56.1502721 79.1696395,57.6525461 75.6267392,57.6525461 L75.4025192,57.6525461 C72.2407929,57.6525461 70.6710286,56.5538681 70.6710286,54.8722181 L70.6710286,54.8722181 Z" fill="#FFFFFF" id="Fill-10"/>
            <path d="M91.3444718,45.9027004 L91.3444718,45.7457464 C91.3444718,43.6156564 90.4924358,42.2925341 88.4069655,42.2925341 C86.7028935,42.2925341 85.3127294,43.3239461 85.1555512,45.9027004 L91.3444718,45.9027004 Z M83.3617912,46.7323144 C83.3617912,43.0773041 85.4024174,40.9472141 88.4742315,40.9472141 C91.7929118,40.9472141 93.160878,43.2118361 93.138456,46.2390304 C93.138456,46.3737866 93.138456,47.0240247 93.1158098,47.0912907 L85.1333534,47.0912907 C85.2454634,49.8267747 86.5683615,51.127475 88.6089877,51.127475 C90.0439957,51.127475 91.030788,50.4770127 91.5686918,49.6252009 L92.757282,50.4548149 C91.9498658,51.620759 90.6045458,52.517639 88.5190755,52.517639 C85.2228172,52.517639 83.3393692,50.3427049 83.3617912,46.7323144 L83.3617912,46.7323144 Z" fill="#FFFFFF" id="Fill-11"/>
            <polygon fill="#FFFFFF" id="Fill-12" points="99.3031832 41.1938561 101.254121 41.1938561 103.698344 48.2348127 104.371004 50.7236547 104.460692 50.7236547 105.200618 48.1899687 107.599996 41.1938561 109.55071 41.1938561 105.245462 52.3160652 103.563588 52.3160652"/>
            <path d="M119.528523,46.710027 C119.528523,44.0640067 118.384776,42.3148664 116.164998,42.3148664 C113.900152,42.3148664 112.621874,44.1088507 112.621874,46.710027 C112.621874,49.400667 113.87773,51.1273853 116.07531,51.1273853 C118.250244,51.1273853 119.528523,49.400667 119.528523,46.710027 M110.78327,46.732449 C110.78327,43.4586127 112.778828,40.9473486 116.18742,40.9473486 C119.528523,40.9473486 121.367127,43.2117465 121.367127,46.687605 C121.367127,50.1183952 119.304078,52.5175493 116.07531,52.5175493 C112.666718,52.5175493 110.78327,50.2977712 110.78327,46.732449" fill="#FFFFFF" id="Fill-13"/>
            <path d="M132.241416,46.710027 C132.241416,44.0640067 131.09767,42.3148664 128.877891,42.3148664 C126.613045,42.3148664 125.334767,44.1088507 125.334767,46.710027 C125.334767,49.400667 126.590623,51.1273853 128.788203,51.1273853 C130.963138,51.1273853 132.241416,49.400667 132.241416,46.710027 M123.496163,46.732449 C123.496163,43.4586127 125.491721,40.9473486 128.900313,40.9473486 C132.241416,40.9473486 134.08002,43.2117465 134.08002,46.687605 C134.08002,50.1183952 132.016972,52.5175493 128.788203,52.5175493 C125.379611,52.5175493 123.496163,50.2977712 123.496163,46.732449" fill="#FFFFFF" id="Fill-14"/>
            <path d="M137.083828,41.1938561 L138.765478,41.1938561 L138.765478,42.7633961 L138.541258,46.2616766 L138.676014,46.2616766 C139.012344,43.7053444 140.245554,41.0593241 142.712198,41.0593241 L143.070726,41.0593241 L143.070726,43.1223724 C142.869152,43.0997261 142.600088,43.0997261 142.3308,43.0997261 C140.245554,43.0997261 139.101808,45.1179304 138.810322,47.6518407 L138.810322,52.293419 L137.083828,52.293419 L137.083828,41.1938561 Z" fill="#FFFFFF" id="Fill-15"/>
            <path d="M27.5777376,81.0829087 L27.5777376,80.3429827 C27.5777376,78.7059525 26.9725678,77.2261005 25.1561616,77.2261005 C23.7657733,77.2261005 22.8688933,78.5041545 22.8688933,80.7239325 C22.8688933,83.0336228 23.5863973,84.536121 25.0886713,84.536121 C26.7257016,84.536121 27.5777376,82.652673 27.5777376,81.0829087 M19.595057,80.9035327 C19.595057,76.8673485 21.5908393,75.0287444 24.1023275,75.0287444 C26.0978856,75.0287444 27.1519438,76.2393082 27.5777376,77.5848525 L27.7124938,77.5848525 L27.5104716,75.2078962 L27.5104716,70.1402999 L30.5376659,70.1402999 L30.5376659,86.5991693 L27.6225816,86.5991693 L27.6898476,83.661663 L27.7573378,83.101113 L27.7346916,83.123535 C27.5104716,85.119093 26.1203076,86.7783211 23.9227273,86.7783211 C21.2767071,86.7783211 19.595057,84.603387 19.595057,80.9035327" fill="#FFFFFF" id="Fill-16"/>
            <path d="M40.3582778,79.8496987 L40.3582778,79.7600107 C40.3582778,78.2353147 39.8425718,77.2261005 38.3176516,77.2261005 C37.0620196,77.2261005 36.1651395,77.9211825 36.0530295,79.8496987 L40.3582778,79.8496987 Z M32.9137253,80.993445 C32.9137253,77.2709445 34.9991955,75.0511664 38.3849176,75.0511664 C41.9953081,75.0511664 43.4749359,77.4278985 43.4749359,80.6568907 C43.4749359,80.8586887 43.4749359,81.5089268 43.4527381,81.6210368 L36.0306075,81.6210368 C36.1873373,83.7062828 37.2413956,84.580965 38.7212476,84.580965 C39.8201498,84.580965 40.7618738,84.042837 41.2327359,83.213223 L43.1164081,84.603387 C42.2195281,85.9265093 40.7394518,86.8682333 38.4521836,86.8682333 C34.9991955,86.8682333 32.9137253,84.760341 32.9137253,80.993445 L32.9137253,80.993445 Z" fill="#FFFFFF" id="Fill-17"/>
            <path d="M56.0085875,78.8181522 C58.3404755,78.8181522 58.9909378,77.5400982 58.9909378,76.3066639 C58.9909378,75.0510319 58.4525855,74.1765739 56.0758535,74.1765739 L54.3493595,74.1765739 L54.3493595,78.8181522 L56.0085875,78.8181522 Z M51.187409,71.7771956 L56.7485135,71.7771956 C60.9192298,71.7771956 62.2197058,73.5485336 62.2197058,75.7685359 C62.2197058,77.2037681 61.524848,78.8405742 59.0131355,79.4683902 C61.2107158,79.9392522 62.354462,82.2043227 62.6008798,85.4330907 L62.7129898,86.5990348 L59.3945338,86.5990348 C59.3945338,86.4420808 59.3945338,86.2851268 59.3721118,85.8366867 C59.1703138,82.6527627 58.2734337,81.0379302 55.8738313,81.0379302 L54.3493595,81.0379302 L54.3493595,86.5990348 L51.187409,86.5990348 L51.187409,71.7771956 Z" fill="#FFFFFF" id="Fill-18"/>
            <path d="M71.7486524,79.8496987 L71.7486524,79.7600107 C71.7486524,78.2353147 71.2329464,77.2261005 69.7080261,77.2261005 C68.4523941,77.2261005 67.5555141,77.9211825 67.4434041,79.8496987 L71.7486524,79.8496987 Z M64.3040998,80.993445 C64.3040998,77.2709445 66.3895701,75.0511664 69.7752921,75.0511664 C73.3856827,75.0511664 74.8653105,77.4278985 74.8653105,80.6568907 C74.8653105,80.8586887 74.8653105,81.5089268 74.8431127,81.6210368 L67.4209821,81.6210368 C67.5777119,83.7062828 68.6317701,84.580965 70.1116222,84.580965 C71.2105244,84.580965 72.1522484,84.042837 72.6231104,83.213223 L74.5067827,84.603387 C73.6099027,85.9265093 72.1298264,86.8682333 69.8425581,86.8682333 C66.3895701,86.8682333 64.3040998,84.760341 64.3040998,80.993445 L64.3040998,80.993445 Z" fill="#FFFFFF" id="Fill-19"/>
            <path d="M76.6808423,80.9707987 C76.6808423,77.5624305 78.6990465,75.0511664 82.2419468,75.0511664 C84.6186788,75.0511664 86.2332871,75.9480464 86.8608789,78.2353147 L84.1478168,79.2889245 C83.9684408,78.2799345 83.5424228,77.3157885 82.2419468,77.3157885 C80.7842925,77.3157885 79.8649905,78.4368885 79.8649905,80.881335 C79.8649905,83.1905768 80.5376505,84.558543 82.2641446,84.558543 C83.3852446,84.558543 84.0805508,83.953149 84.3274171,82.899315 L86.8162591,83.953149 C86.2781311,85.455423 84.8879671,86.8682333 82.1520346,86.8682333 C78.6990465,86.8682333 76.6808423,84.536121 76.6808423,80.9707987" fill="#FFFFFF" id="Fill-20"/>
            <path d="M88.9682554,70.1403447 L91.9952255,70.1403447 L91.9952255,76.3514631 C91.9952255,76.6205271 91.8384957,78.3024013 91.8384957,78.3024013 L91.9728035,78.3024013 C92.6006195,76.2619993 93.9910077,75.073409 95.87468,75.073409 C98.027192,75.073409 99.2830483,76.3741093 99.2830483,79.1095933 L99.2830483,86.5989899 L96.1210978,86.5989899 L96.1210978,79.9618536 C96.1210978,78.1454473 95.381396,77.6970073 94.3946038,77.6970073 C93.1613937,77.6970073 92.0627157,78.8405293 91.9952255,81.0829536 L91.9952255,86.5989899 L88.9682554,86.5989899 L88.9682554,70.1403447 Z" fill="#FFFFFF" id="Fill-21"/>
            <path d="M103.049025,83.3699976 L103.049025,77.7866953 L101.411995,77.7866953 L101.411995,75.3651193 L103.161135,75.3651193 L103.183557,72.9206728 L106.008729,71.6874628 L106.008729,74.624969 L105.874421,75.3651193 L108.453176,75.3651193 L108.453176,77.7866953 L105.874421,77.7866953 L106.008729,78.5490433 L106.008729,82.8769378 C106.008729,84.0653039 106.277793,84.2671019 107.331851,84.2671019 C107.847557,84.2671019 108.341066,84.1774139 108.83435,84.0653039 L108.83435,86.2626599 C108.116846,86.5319481 107.197319,86.7783659 106.120839,86.7783659 C103.968327,86.7783659 103.049025,85.8814859 103.049025,83.3699976" fill="#FFFFFF" id="Fill-22"/>
            <path d="M117.825213,79.8496987 L117.825213,79.7600107 C117.825213,78.2353147 117.309507,77.2261005 115.784587,77.2261005 C114.528955,77.2261005 113.632075,77.9211825 113.519965,79.8496987 L117.825213,79.8496987 Z M110.38066,80.993445 C110.38066,77.2709445 112.466131,75.0511664 115.851853,75.0511664 C119.462243,75.0511664 120.941871,77.4278985 120.941871,80.6568907 C120.941871,80.8586887 120.941871,81.5089268 120.919673,81.6210368 L113.497318,81.6210368 C113.654272,83.7062828 114.708331,84.580965 116.188183,84.580965 C117.287085,84.580965 118.228809,84.042837 118.699671,83.213223 L120.583343,84.603387 C119.686463,85.9265093 118.206387,86.8682333 115.919119,86.8682333 C112.466131,86.8682333 110.38066,84.760341 110.38066,80.993445 L110.38066,80.993445 Z" fill="#FFFFFF" id="Fill-23"/>
            <path d="M123.295598,75.3650744 L126.322792,75.3650744 L126.322792,76.8449265 C126.322792,77.1139905 126.210682,78.3025807 126.210682,78.3025807 L126.367636,78.3025807 C126.972806,76.2619544 128.385616,75.0733642 130.246867,75.0733642 C132.376957,75.0733642 133.632813,76.3740644 133.632813,79.1095485 L133.632813,86.5991693 L130.471087,86.5991693 L130.471087,79.9618087 C130.471087,78.1454025 129.798427,77.6969625 128.834056,77.6969625 C127.600846,77.6969625 126.479746,78.7510207 126.434902,80.881335 L126.434902,86.5991693 L123.295598,86.5991693 L123.295598,75.3650744 Z" fill="#FFFFFF" id="Fill-24"/>
            <polygon fill="#FFFFFF" id="Fill-25" points="18.8103991 97.7905727 22.2185432 97.7905727 23.9004174 103.867383 24.4833894 106.535601 24.6179214 106.535601 25.1562737 103.867383 26.7706577 97.7905727 30.201448 97.7905727 26.0305075 109.024892 22.9360472 109.024892"/>
            <path d="M37.892082,105.145392 L37.892082,102.948036 C37.6452158,103.284366 37.219422,103.508586 36.4120058,103.755228 C34.8873097,104.181246 34.1025397,104.741796 34.1025397,105.750786 C34.1025397,106.647666 34.7301315,107.141175 35.4702818,107.141175 C36.5913818,107.141175 37.667862,106.446093 37.892082,105.145392 M31.0080795,106.13196 C31.0080795,104.001646 32.6897295,103.127412 35.0218417,102.656326 C36.950358,102.252954 37.802394,102.050932 37.892082,101.804514 L37.892082,101.557648 C37.892082,100.481392 37.353954,99.8311541 35.9859878,99.8311541 C34.6406677,99.8311541 33.7884075,100.638346 33.4298797,101.46796 L31.0977675,100.212328 C31.9049595,98.5531001 33.8783197,97.5214638 36.2998958,97.5214638 C39.461622,97.5214638 40.9416983,99.0015401 40.9416983,101.737248 L40.9416983,105.369612 C40.9416983,107.701725 41.2107623,108.710715 41.5919363,109.024847 L38.475054,109.024847 C38.2057658,108.777981 37.9815458,108.038055 37.914504,106.759776 C37.4209958,108.374385 36.008634,109.249067 34.3938015,109.249067 C32.2412895,109.249067 31.0080795,107.993211 31.0080795,106.13196" fill="#FFFFFF" id="Fill-26"/>
            <path d="M43.9906868,97.7905727 L47.017881,97.7905727 L47.017881,99.2706489 C47.017881,99.5397129 46.905771,100.728079 46.905771,100.728079 L47.0625008,100.728079 C47.6678948,98.6874527 49.0807051,97.4990867 50.9419553,97.4990867 C53.0720454,97.4990867 54.3279016,98.7995627 54.3279016,101.535271 L54.3279016,109.024892 L51.1661753,109.024892 L51.1661753,102.387307 C51.1661753,100.570901 50.4935153,100.122461 49.5291451,100.122461 C48.2959351,100.122461 47.174835,101.176519 47.129991,103.306833 L47.129991,109.024892 L43.9906868,109.024892 L43.9906868,97.7905727 Z" fill="#FFFFFF" id="Fill-27"/>
            <path d="M69.7541034,103.508631 L69.7541034,102.768481 C69.7541034,101.131451 69.1487093,99.6518229 67.3325273,99.6518229 C65.9421391,99.6518229 65.045259,100.929877 65.045259,103.149655 C65.045259,105.459345 65.7627631,106.961619 67.2650371,106.961619 C68.9020673,106.961619 69.7541034,105.078171 69.7541034,103.508631 M61.7714228,103.329031 C61.7714228,99.2928467 63.767205,97.4542427 66.2784691,97.4542427 C68.2742513,97.4542427 69.3283096,98.6650307 69.7541034,100.010351 L69.8888596,100.010351 L69.6868374,97.6336187 L69.6868374,92.5657981 L72.7140316,92.5657981 L72.7140316,109.024892 L69.7989474,109.024892 L69.8664376,106.087161 L69.9337036,105.526611 L69.9110574,105.549033 C69.6868374,107.544816 68.2966733,109.204044 66.0990931,109.204044 C63.4530728,109.204044 61.7714228,107.028885 61.7714228,103.329031" fill="#FFFFFF" id="Fill-28"/>
            <path d="M82.5348678,102.275197 L82.5348678,102.185733 C82.5348678,100.660813 82.0191618,99.6518229 80.4942416,99.6518229 C79.2386095,99.6518229 78.3417295,100.346681 78.2296195,102.275197 L82.5348678,102.275197 Z M75.0903152,103.418943 C75.0903152,99.6964427 77.1757855,97.4766647 80.5615076,97.4766647 C84.1718981,97.4766647 85.6515259,99.8533967 85.6515259,103.082613 C85.6515259,103.284411 85.6515259,103.934425 85.6293281,104.046535 L78.2071975,104.046535 C78.3639273,106.132005 79.4179855,107.006687 80.8978376,107.006687 C81.9967398,107.006687 82.9384638,106.468335 83.4093258,105.638721 L85.2929981,107.028885 C84.3961181,108.352008 82.9160418,109.293732 80.6287736,109.293732 C77.1757855,109.293732 75.0903152,107.185839 75.0903152,103.418943 L75.0903152,103.418943 Z" fill="#FFFFFF" id="Fill-29"/>
            <polygon fill="#FFFFFF" id="Fill-30" points="93.3644249 94.2028284 98.4770895 94.2028284 101.302262 103.037545 101.817968 106.042541 101.974922 106.042541 102.446008 103.037545 105.271404 94.2028284 110.271734 94.2028284 110.271734 109.024668 107.154852 109.024668 107.154852 102.656371 107.446338 96.2656524 107.199696 96.2656524 106.078596 100.414171 103.096246 109.024668 100.56256 109.024668 97.5802095 100.414171 96.3467752 96.2656524 96.1001332 96.2656524 96.4588852 102.656371 96.4588852 109.024668 93.3644249 109.024668"/>
            <path d="M119.935594,102.275197 L119.935594,102.185733 C119.935594,100.660813 119.419888,99.6518229 117.894968,99.6518229 C116.639336,99.6518229 115.742456,100.346681 115.630346,102.275197 L119.935594,102.275197 Z M112.491042,103.418943 C112.491042,99.6964427 114.576512,97.4766647 117.962234,97.4766647 C121.572624,97.4766647 123.052252,99.8533967 123.052252,103.082613 C123.052252,103.284411 123.052252,103.934425 123.030054,104.046535 L115.6077,104.046535 C115.764654,106.132005 116.818712,107.006687 118.298564,107.006687 C119.397466,107.006687 120.33919,106.468335 120.810052,105.638721 L122.693724,107.028885 C121.796844,108.352008 120.316768,109.293732 118.0295,109.293732 C114.576512,109.293732 112.491042,107.185839 112.491042,103.418943 L112.491042,103.418943 Z" fill="#FFFFFF" id="Fill-31"/>
            <path d="M125.406428,97.7905727 L128.433622,97.7905727 L128.433622,99.2706489 C128.433622,99.5397129 128.321512,100.728079 128.321512,100.728079 L128.478466,100.728079 C129.083636,98.6874527 130.496446,97.4990867 132.357696,97.4990867 C134.487786,97.4990867 135.743643,98.7995627 135.743643,101.535271 L135.743643,109.024892 L132.581916,109.024892 L132.581916,102.387307 C132.581916,100.570901 131.909256,100.122461 130.944886,100.122461 C129.711676,100.122461 128.590576,101.176519 128.545732,103.306833 L128.545732,109.024892 L125.406428,109.024892 L125.406428,97.7905727 Z" fill="#FFFFFF" id="Fill-32"/>
            <path d="M137.738528,107.006598 L139.577132,105.436834 C140.227594,106.446048 141.169318,107.051442 142.357684,107.051442 C143.187298,107.051442 143.837536,106.69269 143.837536,106.02003 C143.837536,105.12315 142.671592,104.741752 140.989942,104.15878 C139.554934,103.643074 138.164322,102.790813 138.164322,100.907365 C138.164322,99.0911832 139.823998,97.5440652 142.626748,97.5440652 C144.824328,97.5440652 146.057538,98.351033 146.887377,99.472133 L145.026126,101.086965 C144.734416,100.526415 143.99449,99.696353 142.76128,99.696353 C141.864176,99.696353 141.303626,100.144793 141.303626,100.727989 C141.303626,101.625093 142.492216,101.983845 143.88238,102.47713 C145.474566,103.03768 146.999487,103.777606 146.999487,105.885274 C146.999487,107.903478 145.2277,109.249022 142.402528,109.249022 C140.474012,109.249022 138.635408,108.486674 137.738528,107.006598" fill="#FFFFFF" id="Fill-33"/>
        </g>
    </g>
</svg>