<svg xmlns="http://www.w3.org/2000/svg" width="162" height="32" fill="none"><g clip-path="url(#a)"><path fill="#000" fill-rule="evenodd" d="M161.8 27.5V32H0v-4.5h161.8ZM89 7c4.5 0 7.3 1.3 7.3 5.4v8.2c0 .8.5 1.2 1 1.2.4 0 .6 0 1-.2l.2.2a4.4 4.4 0 0 1-4.2 2.5c-2.5 0-3.7-1.2-4.3-3-1 2.1-3 3-4.8 3C83 24.4 81 23 81 20c0-2.7 1.9-3.8 4.1-4.5 1.9-.6 3.4-.7 5-.9v-4.2c0-1.5-.2-2.6-1.2-2.6-1.7 0-1.5 3.3-1.3 5.4l-3.8.3c-1-.3-1.5-1.2-1.5-2.4 0-2.9 3-4 6.8-4Zm34 0c5.5 0 8.8 3.8 8.8 8.9 0 5.1-3.6 8.4-8.9 8.4-5.2 0-8.9-3.3-8.9-8.4 0-5.1 3.4-9 9-9Zm19.3 0c5.5 0 8.9 3.8 8.9 8.9 0 5.1-3.7 8.4-9 8.4-5.2 0-8.8-3.3-8.8-8.4 0-5.1 3.3-9 8.9-9ZM33.8 7c4.6 0 7 2.8 7 6.8v.8H31c0 3.8 2 5.8 5 5.8 1.8 0 3.2-.7 4.3-2h.4c-.8 3.6-3.2 5.8-7.2 5.8-4.6 0-8.3-2.9-8.3-8.3 0-5.5 4-9 8.5-9Zm16-4v4.3h3.5v.9h-3.4V19c0 1.3.8 1.9 1.7 1.9.8 0 1.5-.3 2.1-1.1l.4.1c-.8 2.9-3 4.4-5.6 4.4-3 0-5-1.4-5-5.1v-11h-1.7v-.4c2.4-.9 5-2.6 7.6-4.7h.5ZM11 2.5v.4c-2 .3-2.2.5-2.2 2.1v7.6H16V4.9c0-1.5-.2-1.7-2.1-2v-.4h11v.4c-2 .3-2.2.5-2.2 2.1v16.5c0 1.6.1 1.8 2.1 2v.5h-11v-.4c2-.3 2.2-.5 2.2-2v-8.1H8.8v8c0 1.6.2 1.9 2.2 2v.5H0v-.4c2-.3 2.1-.5 2.1-2V4.8C2.1 3.4 2 3.2 0 3v-.4h11Zm60.8 0c6 0 8.9 2.7 8.9 6.5 0 4.4-3 6.8-9.3 6.8h-2v5.7c0 1.6.9 2 3.6 2v.5H60.6v-.4c2-.3 2-.5 2-2V4.8c0-1.5 0-1.7-2-2v-.4h11.2ZM107.3 7l-.2 5.7c.6-2 1.8-5.7 4.6-5.7.8 0 1.3.2 1.6.5v4.9l-.2.1c-1.3-.6-4.6-.6-6 1V22c0 1.2.7 1.3 2.4 1.6v.4H99.2v-.4c1.1-.1 1.6-.2 1.6-1.1V10.4l-1.6-1v-.5l7.6-1.8h.5ZM160 0v22.5c0 .9.5 1 1.6 1v.5h-9.5v-.4c1-.1 1.6-.2 1.6-1.1V2.8l-1.6-1v-.4l7.5-1.4h.4Zm-37 7.8c-1.7 0-2.3 3-2.3 8.2 0 5.1.6 7.7 2.2 7.7s2.2-2.6 2.2-7.7c0-5.2-.6-8.2-2.2-8.2Zm19.3 0c-1.7 0-2.2 3-2.2 8.2 0 5.1.6 7.7 2.2 7.7s2.1-2.5 2.2-7.6V16c0-5.2-.6-8.2-2.2-8.2ZM90 15l-1.2.4c-1 .3-1.7 1-1.7 2.8 0 1.6.5 2.7 2 2.7.4 0 .6 0 .9-.2v-5.7Zm-20.3-12h-.4v12.1h.4c2.8 0 4.3-2.3 4.3-6.2 0-3.8-1.8-5.9-4.3-5.9ZM33.4 7.8c-1.5 0-2.2 2.5-2.3 6.3l4.3-.3c0-3.8-.5-6-2-6Z" clip-rule="evenodd"/></g><defs><clipPath id="a"><path fill="#fff" d="M0 0h161.8v32H0z"/></clipPath></defs></svg>